<svg t="1691830763869" class="icon" viewBox="0 0 1024 1024" version="1.1" xmlns="http://www.w3.org/2000/svg" p-id="3996" width="200" height="200"><path d="M448.98 562c-124.26 0-225-100.74-225-225v-50c0-124.26 100.74-225 225-225h225v275c0 124.26-100.73 225-225 225z" fill="#3E80F6" p-id="3997"></path><path d="M718.95 962h-540c-64.99 0-111.97-62.47-94.5-124.94l37.06-129.57c16.41-56.51 68.03-95.43 126.53-95.43H281c27.53 0 53.87 10.85 73.32 30.31l59.43 59.43c1.06 1.06 2.12 1.99 3.18 3.05 18.53 15.48 45.66 15.48 64.06 0 1.19-0.93 2.25-1.99 3.31-3.05l59.29-59.43c19.46-19.46 45.93-30.31 73.32-30.31H650c58.5 0 109.99 38.91 126.53 95.43l36.93 129.57C830.92 899.53 783.93 962 718.95 962z" fill="#0C2E97" p-id="3998"></path><path d="M684.56 813H568.81c-14.33 0-25.96-11.63-25.96-25.96s11.63-25.96 25.96-25.96h115.75c14.33 0 25.96 11.63 25.96 25.96S698.89 813 684.56 813z" fill="#1AADF9" p-id="3999"></path><path d="M925.92 337.89h-50.81v-11.76h17.98c9.57 0 17.31-7.74 17.31-17.31 0-9.57-7.74-17.31-17.31-17.31h-17.98v-19.1c36.79-7.97 64.46-40.7 64.46-79.84 0-45.09-36.68-81.81-81.77-81.81-45.09 0-81.77 36.71-81.77 81.81 0 39.15 27.67 71.87 64.46 79.84v132.58c0 9.57 7.74 17.31 17.31 17.31 9.57 0 17.31-7.74 17.31-17.31V372.5h50.81c9.57 0 17.31-7.74 17.31-17.31s-7.74-17.3-17.31-17.3zM810.65 192.56c0-26.03 21.16-47.19 47.16-47.19 26 0 47.16 21.16 47.16 47.19 0 26-21.16 47.16-47.16 47.16-26 0-47.16-21.16-47.16-47.16z" fill="#FF4F4F" p-id="4000"></path></svg>